<svg width="78" height="78" fill="none" xmlns="http://www.w3.org/2000/svg"><path d="M39 22.75c.92 0 1.693-.312 2.317-.936.624-.624.935-1.395.933-2.314-.002-.919-.314-1.69-.936-2.314-.622-.624-1.393-.936-2.314-.936-.92 0-1.692.312-2.314.936-.622.624-.934 1.395-.936 2.314-.002.919.31 1.691.936 2.317.626.626 1.398.937 2.314.933Zm-3.25 26h6.5v-19.5h-6.5v19.5ZM6.5 71.5V13c0-1.787.637-3.317 1.911-4.589C9.685 7.139 11.215 6.502 13 6.5h52c1.787 0 3.318.637 4.592 1.911 1.274 1.274 1.91 2.804 1.908 4.589v39c0 1.788-.636 3.318-1.908 4.592C68.32 57.866 66.79 58.502 65 58.5H19.5l-13 13Z" fill="#000"/></svg>